<svg xmlns="http://www.w3.org/2000/svg" viewBox="0 0 32 32">
  <!-- Лотос (бадм цецг) в круге неба — мотив герба и флага Калмыкии.
       Повторяет знак в шапке приложения: вкладку узнают по нему же. -->
  <rect width="32" height="32" rx="8" fill="#1a5fa8"/>
  <g fill="#ffffff" stroke="#1a5fa8" stroke-width="1" stroke-linejoin="round" transform="translate(0 -0.5)">
    <path d="M16 19C12.4 15.4 12.4 11.4 16 8c3.6 3.4 3.6 7.4 0 11Z" transform="rotate(-52 16 19)"/>
    <path d="M16 19C12.4 15.4 12.4 11.4 16 8c3.6 3.4 3.6 7.4 0 11Z" transform="rotate(52 16 19)"/>
    <path d="M16 19C12.4 15.4 12.4 11.4 16 8c3.6 3.4 3.6 7.4 0 11Z" transform="rotate(-26 16 19)"/>
    <path d="M16 19C12.4 15.4 12.4 11.4 16 8c3.6 3.4 3.6 7.4 0 11Z" transform="rotate(26 16 19)"/>
    <path d="M16 19C12.4 15.4 12.4 11.4 16 8c3.6 3.4 3.6 7.4 0 11Z"/>
  </g>
  <path d="M8.5 22.6c2.4 2 4.9 3 7.5 3s5.1-1 7.5-3" fill="none" stroke="#f0b323" stroke-width="2.2" stroke-linecap="round"/>
</svg>
